<svg xmlns="http://www.w3.org/2000/svg" xmlns:xlink="http://www.w3.org/1999/xlink" width="140px" height="68px" viewBox="0 0 140 68"><title>graphic / zap-trademark</title><defs><linearGradient x1="99.7085567%" y1="85.3613632%" x2="2.74809667%" y2="13.305664%" id="linearGradient-1"><stop stop-color="#3E0097" offset="0%"></stop><stop stop-color="#480097" offset="5%"></stop><stop stop-color="#7F009B" offset="34%"></stop><stop stop-color="#A6009E" offset="58%"></stop><stop stop-color="#BF00A0" offset="78%"></stop><stop stop-color="#C800A1" offset="90%"></stop></linearGradient></defs><g id="Symbols" stroke="none" stroke-width="1" fill="none" fill-rule="evenodd"><g id="Navigation-/-Primary" transform="translate(-119.000000, -41.000000)" fill-rule="nonzero"><g id="graphic-/-zap-trademark" transform="translate(119.000000, 41.000000)"><path d="M55.0932642,13.4914776 L0.0822107081,0.00111600493 C0.0411053541,-0.00615381448 -1.42108547e-14,0.0229254632 -1.42108547e-14,0.0641211065 L-1.42108547e-14,0.478500813 C-1.42108547e-14,0.507580091 0.016925734,0.531812822 0.0411053541,0.541505915 L41.9782383,16.6150766 L14.3070812,42.8785109 L79.0141623,67.712214 C79.0552677,67.7291769 79.101209,67.6976744 79.1039306,67.6516322 L79.1039306,66.7235186 C79.1060449,66.6992858 79.0939551,66.6750531 79.0697755,66.6629367 L27.4221071,39.7549118 L55.0932642,13.4914776 Z" id="Path" fill="url(#linearGradient-1)"></path><polygon id="Path" fill="#25282A" points="79.229361 21.9268914 79.229361 25.0407973 65.9184801 37.6878598 79.1036269 37.6878598 79.1036269 42.8785109 56.3143351 42.8785109 56.3143351 39.6385947 69.7799655 26.8340195 56.9405872 26.8340195 56.9405872 21.9268914 79.229361 21.9268914"></polygon><path d="M124.96753,21.9268914 C130.838342,21.9268914 134.322625,24.7257718 134.322625,29.1942875 C134.322625,33.6628032 130.649741,36.5876938 124.841796,36.5876938 L118.908117,36.5876938 L118.908117,42.8785109 L112.599655,42.8785109 L112.599655,21.9268914 L124.96753,21.9268914 L124.96753,21.9268914 Z M118.876684,31.9616654 L123.867358,31.9616654 C126.943005,31.9616654 128.043178,30.9245045 128.043178,29.2863719 C128.043178,27.6482392 126.882556,26.6110783 123.993092,26.6110783 L118.876684,26.6110783 L118.876684,31.9592421 L118.876684,31.9616654 Z" id="Shape" fill="#25282A"></path><polygon id="Path" fill="#25282A" points="98.957513 21.8323837 92.0518135 21.8323837 81.5989637 42.8785109 88.0017271 42.8785109 89.6338515 39.4495794 99.3516408 39.4495794 97.3592401 35.2960893 91.6431779 35.2960893 95.2846287 27.7475934 95.3474957 27.7475934 102.598964 42.8785109 109.410363 42.8785109"></polygon><path d="M135.971675,23.901859 C135.971675,23.6304524 136.02487,23.3735854 136.128843,23.1336814 C136.232815,22.8937773 136.373057,22.6853758 136.551986,22.5060536 C136.730915,22.3267314 136.93886,22.1861816 137.178238,22.0819808 C137.417617,21.9777801 137.671503,21.9244681 137.942314,21.9244681 C138.213126,21.9244681 138.46943,21.9777801 138.708808,22.0819808 C138.948187,22.1861816 139.156131,22.3291547 139.33506,22.5060536 C139.51399,22.6853758 139.654231,22.8937773 139.758204,23.1336814 C139.862176,23.3735854 139.915371,23.6280291 139.915371,23.901859 C139.915371,24.1756888 139.862176,24.4301325 139.758204,24.6700365 C139.654231,24.9099406 139.511572,25.1183421 139.33506,25.2976643 C139.156131,25.4769865 138.948187,25.6175363 138.708808,25.7217371 C138.46943,25.8259378 138.215544,25.8792498 137.942314,25.8792498 C137.669085,25.8792498 137.415199,25.8259378 137.178238,25.7217371 C136.941278,25.6175363 136.730915,25.4769865 136.551986,25.2976643 C136.373057,25.1183421 136.232815,24.9099406 136.128843,24.6700365 C136.02487,24.4301325 135.971675,24.1756888 135.971675,23.901859 Z M136.256995,23.901859 C136.256995,24.1344932 136.300518,24.355011 136.389983,24.5609893 C136.477029,24.7669675 136.597927,24.9438664 136.750259,25.0965326 C136.902591,25.2491988 137.08152,25.3703625 137.284629,25.4576003 C137.490155,25.5472614 137.707772,25.5908803 137.942314,25.5908803 C138.176857,25.5908803 138.394473,25.5472614 138.6,25.4576003 C138.805527,25.3703625 138.984456,25.2491988 139.13437,25.0965326 C139.286701,24.9438664 139.407599,24.7645442 139.494646,24.5609893 C139.581693,24.355011 139.627634,24.1369165 139.627634,23.901859 C139.627634,23.6668015 139.584111,23.4487069 139.494646,23.2427287 C139.405181,23.0367505 139.286701,22.8574282 139.13437,22.7071853 C138.982038,22.5545191 138.803109,22.4357787 138.6,22.3461176 C138.394473,22.2588798 138.176857,22.2128376 137.942314,22.2128376 C137.707772,22.2128376 137.490155,22.2564565 137.284629,22.3461176 C137.079102,22.4357787 136.902591,22.5545191 136.750259,22.7071853 C136.597927,22.8598515 136.477029,23.0391737 136.389983,23.2427287 C136.300518,23.4487069 136.256995,23.6668015 136.256995,23.901859 Z M137.511917,25.0335275 L137.226598,25.0335275 L137.226598,22.7556508 L138.1019,22.7556508 C138.360622,22.7556508 138.544387,22.8089628 138.653195,22.9180101 C138.762003,23.0270574 138.817617,23.1821468 138.817617,23.3881251 C138.817617,23.4947491 138.803109,23.5844102 138.771675,23.6595316 C138.74266,23.7346531 138.699136,23.7976582 138.648359,23.848547 C138.595164,23.8994357 138.534715,23.9406313 138.464594,23.9697106 C138.394473,23.9987899 138.321934,24.0230226 138.24456,24.035139 L138.921589,25.0335275 L138.597582,25.0335275 L137.920553,24.035139 L137.511917,24.035139 L137.511917,25.0335275 L137.511917,25.0335275 Z M137.511917,23.7806953 L137.877029,23.7806953 C137.954404,23.7806953 138.031779,23.778272 138.109154,23.7734255 C138.186528,23.7685789 138.256649,23.751616 138.319516,23.72496 C138.379965,23.698304 138.430743,23.6595316 138.46943,23.6086429 C138.508117,23.5577542 138.527461,23.485056 138.527461,23.3881251 C138.527461,23.3130036 138.512953,23.2524218 138.48152,23.2039563 C138.452504,23.1554908 138.411399,23.1191417 138.365458,23.0900625 C138.317098,23.0609832 138.263903,23.041597 138.201036,23.0294806 C138.140587,23.0173643 138.07772,23.0100944 138.019689,23.0100944 L137.511917,23.0100944 L137.511917,23.7806953 Z" id="Shape" fill="#25282A"></path></g></g></g></svg>